<?xml version="1.0" encoding="utf-8"?>
<!-- Generator: Adobe Illustrator 27.0.0, SVG Export Plug-In . SVG Version: 6.00 Build 0)  -->
<svg version="1.1" id="圖層_1" xmlns="http://www.w3.org/2000/svg" xmlns:xlink="http://www.w3.org/1999/xlink" x="0px" y="0px"
	 viewBox="0 0 36 36" style="enable-background:new 0 0 36 36;" xml:space="preserve">
<style type="text/css">
	.st0{fill:#FFFFFF;}
</style>
<path class="st0" d="M0,18c0,9.9,8.1,18,18,18s18-8.1,18-18S27.9,0,18,0S0,8.1,0,18z M9.9,17l9.6-9.8c0.7-0.7,1.9-0.7,2.6,0
	c0.7,0.7,0.7,1.9,0,2.6l-8.3,8.5l8,8.1c0.7,0.7,0.7,1.9,0,2.6c-0.4,0.3-0.8,0.5-1.3,0.5s-0.9-0.2-1.3-0.6l-9.3-9.4
	C9.2,18.7,9.2,17.6,9.9,17z"/>
</svg>
